<mxfile host="65bd71144e">
    <diagram id="1ksi9Xwagdh7Gu7T2hZz" name="Page-1">
        <mxGraphModel dx="1600" dy="1000" grid="1" gridSize="10" guides="1" tooltips="1" connect="1" arrows="1" fold="1" page="1" pageScale="1" pageWidth="850" pageHeight="1100" math="0" shadow="0">
            <root>
                <mxCell id="0"/>
                <mxCell id="1" parent="0"/>
                <mxCell id="11" style="edgeStyle=none;html=1;entryX=0.5;entryY=0;entryDx=0;entryDy=0;fontSize=18;" parent="1" source="2" target="3" edge="1">
                    <mxGeometry relative="1" as="geometry"/>
                </mxCell>
                <mxCell id="12" style="edgeStyle=none;html=1;entryX=0.5;entryY=0;entryDx=0;entryDy=0;fontSize=18;" parent="1" source="2" target="4" edge="1">
                    <mxGeometry relative="1" as="geometry"/>
                </mxCell>
                <mxCell id="2" value="&lt;font style=&quot;font-size: 18px;&quot;&gt;Parent's class&lt;br&gt;(Animals)&lt;br&gt;&lt;br&gt;- name&lt;br&gt;- list of commands&lt;br&gt;- date of births&lt;br&gt;&lt;/font&gt;" style="rounded=1;whiteSpace=wrap;html=1;" parent="1" vertex="1">
                    <mxGeometry x="670" y="110" width="320" height="200" as="geometry"/>
                </mxCell>
                <mxCell id="14" style="edgeStyle=none;html=1;entryX=0.5;entryY=0;entryDx=0;entryDy=0;fontSize=18;" parent="1" source="3" target="7" edge="1">
                    <mxGeometry relative="1" as="geometry"/>
                </mxCell>
                <mxCell id="15" style="edgeStyle=none;html=1;fontSize=18;" parent="1" source="3" target="6" edge="1">
                    <mxGeometry relative="1" as="geometry"/>
                </mxCell>
                <mxCell id="16" style="edgeStyle=none;html=1;entryX=0.5;entryY=0;entryDx=0;entryDy=0;fontSize=18;" parent="1" source="3" target="5" edge="1">
                    <mxGeometry relative="1" as="geometry"/>
                </mxCell>
                <mxCell id="3" value="Pets&lt;br&gt;-&amp;nbsp;obediency&lt;span style=&quot;color: rgb(229, 229, 229); font-family: Roboto, Helvetica, Arial, sans-serif; text-align: left; background-color: rgb(43, 43, 46);&quot;&gt;&lt;br&gt;&lt;/span&gt;- autonomy&lt;br&gt;-&amp;nbsp;food habits&lt;br&gt;" style="rounded=1;whiteSpace=wrap;html=1;fontSize=18;" parent="1" vertex="1">
                    <mxGeometry x="280" y="298" width="280" height="200" as="geometry"/>
                </mxCell>
                <mxCell id="17" style="edgeStyle=none;html=1;entryX=0.5;entryY=0;entryDx=0;entryDy=0;fontSize=18;" parent="1" source="4" target="8" edge="1">
                    <mxGeometry relative="1" as="geometry"/>
                </mxCell>
                <mxCell id="18" style="edgeStyle=none;html=1;entryX=0.5;entryY=0;entryDx=0;entryDy=0;fontSize=18;" parent="1" source="4" target="10" edge="1">
                    <mxGeometry relative="1" as="geometry"/>
                </mxCell>
                <mxCell id="19" style="edgeStyle=none;html=1;entryX=0.5;entryY=0;entryDx=0;entryDy=0;fontSize=18;" parent="1" source="4" target="9" edge="1">
                    <mxGeometry relative="1" as="geometry"/>
                </mxCell>
                <mxCell id="4" value="Pack animals&lt;br&gt;-&amp;nbsp;&lt;span style=&quot;color: rgb(229, 229, 229); font-family: Roboto, Helvetica, Arial, sans-serif; text-align: left; background-color: rgb(43, 43, 46);&quot;&gt;capacity&lt;br&gt;&lt;/span&gt;- endurance&lt;br&gt;- speed" style="rounded=1;whiteSpace=wrap;html=1;fontSize=18;" parent="1" vertex="1">
                    <mxGeometry x="1120" y="298" width="280" height="200" as="geometry"/>
                </mxCell>
                <mxCell id="5" value="Cats&lt;br&gt;- list of commands&lt;br&gt;- character&lt;br&gt;- make the noise &quot;Meow&quot;&lt;br&gt;&lt;br&gt;- avarage obediency&amp;nbsp;&amp;nbsp;&lt;br&gt;- full autonomy&lt;br&gt;-&amp;nbsp;&lt;span style=&quot;color: rgb(229, 229, 229); font-family: Roboto, Helvetica, Arial, sans-serif; text-align: left; background-color: rgb(43, 43, 46);&quot;&gt;carnivorous&lt;br&gt;&lt;br&gt;-commads:&amp;nbsp;&lt;br&gt;&lt;br&gt;&lt;/span&gt;" style="rounded=1;whiteSpace=wrap;html=1;fontSize=18;" parent="1" vertex="1">
                    <mxGeometry x="1" y="577" width="230" height="281" as="geometry"/>
                </mxCell>
                <mxCell id="6" value="Dogs&lt;br&gt;- list of commands&lt;br&gt;- character&lt;br&gt;- make the noise &quot;Auw&quot;&lt;br&gt;&lt;br&gt;- good obediency&amp;nbsp;&amp;nbsp;&lt;br&gt;- full autonomy&lt;br&gt;-&amp;nbsp;&lt;span style=&quot;color: rgb(229, 229, 229); font-family: Roboto, Helvetica, Arial, sans-serif; text-align: left; background-color: rgb(43, 43, 46);&quot;&gt;carnivorous&lt;br&gt;&lt;br&gt;&lt;/span&gt;&lt;span style=&quot;color: rgb(229, 229, 229); font-family: Roboto, Helvetica, Arial, sans-serif; text-align: left; background-color: rgb(43, 43, 46);&quot;&gt;-commads:&amp;nbsp;&lt;/span&gt;" style="rounded=1;whiteSpace=wrap;html=1;fontSize=18;" parent="1" vertex="1">
                    <mxGeometry x="305" y="578" width="240" height="280" as="geometry"/>
                </mxCell>
                <mxCell id="7" value="Humsters&lt;br&gt;- list of commands&lt;br&gt;- character&lt;br&gt;- chewing&lt;br&gt;&lt;br&gt;- bad obediency&amp;nbsp;&amp;nbsp;&lt;br&gt;- cant be without cage&lt;br&gt;-&amp;nbsp;&lt;span style=&quot;color: rgb(229, 229, 229); font-family: Roboto, Helvetica, Arial, sans-serif; text-align: left; background-color: rgb(43, 43, 46);&quot;&gt;herbivorous&lt;br&gt;&lt;br&gt;&lt;/span&gt;&lt;span style=&quot;color: rgb(229, 229, 229); font-family: Roboto, Helvetica, Arial, sans-serif; text-align: left; background-color: rgb(43, 43, 46);&quot;&gt;-commads:&amp;nbsp;&lt;/span&gt;" style="rounded=1;whiteSpace=wrap;html=1;fontSize=18;" parent="1" vertex="1">
                    <mxGeometry x="610" y="578" width="210" height="280" as="geometry"/>
                </mxCell>
                <mxCell id="8" value="Horses&lt;br&gt;- list of commands&lt;br&gt;- character&lt;br&gt;- make the noise &quot;Igogo&quot;&lt;br&gt;&lt;br&gt;- good capacity&amp;nbsp;&amp;nbsp;&lt;br&gt;- avarage endurance&lt;br&gt;-&amp;nbsp;&lt;span style=&quot;color: rgb(229, 229, 229); font-family: Roboto, Helvetica, Arial, sans-serif; text-align: left; background-color: rgb(43, 43, 46);&quot;&gt;fast&lt;br&gt;&lt;br&gt;&lt;/span&gt;&lt;span style=&quot;color: rgb(229, 229, 229); font-family: Roboto, Helvetica, Arial, sans-serif; text-align: left; background-color: rgb(43, 43, 46);&quot;&gt;-commads:&amp;nbsp;&lt;/span&gt;" style="rounded=1;whiteSpace=wrap;html=1;fontSize=18;" parent="1" vertex="1">
                    <mxGeometry x="880" y="578" width="220" height="280" as="geometry"/>
                </mxCell>
                <mxCell id="9" value="Camels&lt;br&gt;Horses&lt;br&gt;- list of commands&lt;br&gt;- character&lt;br&gt;- make the noise &quot;Igogo&quot;&lt;br&gt;&lt;br&gt;- good capacity&amp;nbsp;&amp;nbsp;&lt;br&gt;- good endurance&lt;br&gt;&lt;div style=&quot;text-align: left;&quot;&gt;&lt;span style=&quot;background-color: initial;&quot;&gt;&amp;nbsp; &amp;nbsp; &amp;nbsp; &amp;nbsp;- avarage&lt;/span&gt;&lt;font face=&quot;Roboto, Helvetica, Arial, sans-serif&quot; color=&quot;#e5e5e5&quot;&gt;&lt;span style=&quot;background-color: rgb(43, 43, 46);&quot;&gt;&amp;nbsp;speed&lt;/span&gt;&lt;/font&gt;&lt;/div&gt;&lt;div style=&quot;text-align: left;&quot;&gt;&lt;font face=&quot;Roboto, Helvetica, Arial, sans-serif&quot; color=&quot;#e5e5e5&quot;&gt;&lt;span style=&quot;background-color: rgb(43, 43, 46);&quot;&gt;&lt;br&gt;&lt;/span&gt;&lt;/font&gt;&lt;/div&gt;&lt;div style=&quot;text-align: left;&quot;&gt;&lt;span style=&quot;color: rgb(229, 229, 229); font-family: Roboto, Helvetica, Arial, sans-serif; background-color: rgb(43, 43, 46);&quot;&gt;&lt;span style=&quot;white-space: pre;&quot;&gt;&#9;&lt;/span&gt;-commads:&amp;nbsp;&lt;/span&gt;&lt;br style=&quot;color: rgb(229, 229, 229); font-family: Roboto, Helvetica, Arial, sans-serif;&quot;&gt;&lt;/div&gt;" style="rounded=1;whiteSpace=wrap;html=1;fontSize=18;" parent="1" vertex="1">
                    <mxGeometry x="1430" y="578" width="240" height="280" as="geometry"/>
                </mxCell>
                <mxCell id="10" value="Donkeys&lt;br&gt;Horses&lt;br&gt;- list of commands&lt;br&gt;- character&lt;br&gt;- make the noise &quot;Iaaaaa&quot;&lt;br&gt;&lt;br&gt;- min capacity&amp;nbsp;&amp;nbsp;&lt;br&gt;- good endurance&lt;br&gt;&lt;div style=&quot;text-align: left;&quot;&gt;&lt;span style=&quot;background-color: initial;&quot;&gt;&amp;nbsp; &amp;nbsp; &amp;nbsp; &amp;nbsp; &amp;nbsp; &amp;nbsp; &amp;nbsp; - &lt;/span&gt;&lt;font face=&quot;Roboto, Helvetica, Arial, sans-serif&quot; color=&quot;#e5e5e5&quot;&gt;&lt;span style=&quot;background-color: rgb(43, 43, 46);&quot;&gt;slow&amp;nbsp;&lt;/span&gt;&lt;/font&gt;&lt;/div&gt;&lt;div style=&quot;text-align: left;&quot;&gt;&lt;font face=&quot;Roboto, Helvetica, Arial, sans-serif&quot; color=&quot;#e5e5e5&quot;&gt;&lt;span style=&quot;background-color: rgb(43, 43, 46);&quot;&gt;&lt;br&gt;&lt;/span&gt;&lt;/font&gt;&lt;/div&gt;&lt;div style=&quot;text-align: left;&quot;&gt;&lt;span style=&quot;color: rgb(229, 229, 229); font-family: Roboto, Helvetica, Arial, sans-serif; background-color: rgb(43, 43, 46);&quot;&gt;&lt;span style=&quot;white-space: pre;&quot;&gt;&#9;&lt;/span&gt;-commads:&amp;nbsp;&lt;/span&gt;&lt;br style=&quot;color: rgb(229, 229, 229); font-family: Roboto, Helvetica, Arial, sans-serif;&quot;&gt;&lt;/div&gt;" style="rounded=1;whiteSpace=wrap;html=1;fontSize=18;" parent="1" vertex="1">
                    <mxGeometry x="1150" y="579" width="235" height="280" as="geometry"/>
                </mxCell>
                <mxCell id="13" style="edgeStyle=none;html=1;fontSize=18;" parent="1" source="2" target="2" edge="1">
                    <mxGeometry relative="1" as="geometry"/>
                </mxCell>
            </root>
        </mxGraphModel>
    </diagram>
</mxfile>